<svg width="35" height="54" viewBox="0 0 35 54" fill="none" xmlns="http://www.w3.org/2000/svg">
<path d="M17.3662 16.6064C19.238 16.59 21.0961 16.9333 22.8445 17.6184C21.5587 11.0047 19.5755 6.95975 17.3555 6.96277H17.3531C15.1335 6.96717 13.1617 11.0163 11.8922 17.6316C13.6383 16.9426 15.4949 16.5948 17.3659 16.6064H17.3662Z" fill="url(#paint0_linear_2_28)"/>
<path d="M17.4963 47.8664L14.6715 47.8702C15.3841 52.4013 16.3917 53.2489 17.5055 53.2472C18.6192 53.2456 19.6198 52.395 20.3228 47.8628L17.4963 47.8664Z" fill="url(#paint1_linear_2_28)"/>
<path d="M24.3648 34.9803C24.2491 31.5951 24.0205 28.0376 23.6457 24.3266C23.4536 22.4247 23.234 20.5735 22.9869 18.7731C19.3717 17.3421 15.365 17.3469 11.753 18.7865C11.5121 20.6042 11.2974 22.4727 11.109 24.3923C10.7441 28.1313 10.5241 31.7169 10.4157 35.1304C7.29517 37.4948 5.14057 41.9794 5.14781 47.8625L10.3336 47.8557C11.2824 47.8557 11.8472 47.6082 11.8472 46.6166L11.844 46.5979L17.4041 46.5907L23.1461 46.5833C23.1461 47.6333 23.6886 47.8386 24.6414 47.8373L29.8468 47.8307C29.8387 41.835 27.5881 37.2735 24.3648 34.9803ZM17.3708 20.5029C17.7972 20.5023 18.2143 20.6313 18.5692 20.8736C18.9242 21.1158 19.201 21.4605 19.3647 21.864C19.5284 22.2675 19.5717 22.7117 19.4891 23.1404C19.4064 23.569 19.2016 23.963 18.9004 24.2724C18.5992 24.5818 18.2153 24.7927 17.7971 24.8785C17.3789 24.9643 16.9453 24.9211 16.5511 24.7544C16.1569 24.5877 15.8198 24.305 15.5824 23.942C15.3451 23.5789 15.2181 23.152 15.2175 22.715C15.2169 22.1291 15.4434 21.5669 15.8472 21.1521C16.251 20.7373 16.799 20.5038 17.3708 20.5029ZM17.3799 27.7002C17.8063 27.6997 18.2233 27.8286 18.5781 28.0711C18.933 28.3133 19.2097 28.6578 19.3734 29.0614C19.537 29.4647 19.5803 29.909 19.4976 30.3376C19.415 30.7662 19.2101 31.1599 18.909 31.4692C18.6078 31.7788 18.2239 31.9896 17.8058 32.0754C17.3877 32.1612 16.9542 32.1178 16.56 31.9512C16.1659 31.7845 15.8288 31.5019 15.5915 31.1387C15.3542 30.7758 15.2272 30.3489 15.2267 29.912C15.226 29.3262 15.4525 28.7639 15.8563 28.3493C16.2601 27.9345 16.8081 27.701 17.3799 27.7002ZM17.3944 39.3159C16.968 39.3164 16.551 39.1875 16.1962 38.945C15.8413 38.7028 15.5646 38.3583 15.4009 37.9547C15.2372 37.5514 15.194 37.1071 15.2767 36.6785C15.3594 36.2499 15.5642 35.8562 15.8654 35.5466C16.1665 35.2374 16.5504 35.0265 16.9685 34.9407C17.3866 34.8549 17.8201 34.8981 18.2143 35.065C18.6084 35.2316 18.9455 35.5142 19.1828 35.8774C19.4202 36.2403 19.5471 36.6672 19.5476 37.1041C19.548 37.3942 19.4926 37.6815 19.3846 37.9498C19.2765 38.2178 19.118 38.4617 18.918 38.6671C18.718 38.8724 18.4805 39.0355 18.2191 39.1468C17.9576 39.2582 17.6773 39.3159 17.3941 39.3162L17.3944 39.3159Z" fill="url(#paint2_linear_2_28)"/>
<path d="M17.3732 21.4242C17.043 21.4296 16.7281 21.5678 16.4966 21.8091C16.2651 22.0504 16.1356 22.3753 16.136 22.7137C16.1364 23.0521 16.2668 23.3767 16.4989 23.6174C16.731 23.858 17.0462 23.9955 17.3764 24C17.7098 23.9995 18.0293 23.8634 18.2647 23.6216C18.5001 23.3798 18.6322 23.052 18.6317 22.7104C18.6313 22.3689 18.4985 22.0414 18.2624 21.8002C18.0264 21.559 17.7065 21.4238 17.3732 21.4242Z" fill="url(#paint3_linear_2_28)"/>
<path d="M17.3823 28.6215H17.3799C17.0497 28.6267 16.7348 28.765 16.5033 29.0064C16.2718 29.2478 16.1423 29.5727 16.1427 29.9109C16.1432 30.2493 16.2735 30.574 16.5056 30.8146C16.7377 31.0554 17.0529 31.1929 17.3831 31.1973C17.7165 31.197 18.0361 31.0609 18.2716 30.819C18.5071 30.5773 18.6392 30.2493 18.6388 29.9079C18.6385 29.5661 18.5057 29.2387 18.2697 28.9976C18.0337 28.7562 17.7138 28.6209 17.3804 28.6212L17.3823 28.6215Z" fill="url(#paint4_linear_2_28)"/>
<path d="M17.3912 35.8191H17.3898C17.0596 35.8243 16.7447 35.9626 16.5133 36.204C16.2818 36.4454 16.1522 36.7703 16.1526 37.1085C16.1531 37.4469 16.2834 37.7716 16.5155 38.0122C16.7476 38.253 17.0628 38.3905 17.393 38.3949C17.7264 38.3943 18.0459 38.2585 18.2814 38.0166C18.5168 37.7746 18.6489 37.4469 18.6485 37.1055C18.6481 36.764 18.5153 36.4366 18.2793 36.1952C18.0433 35.9541 17.7234 35.8188 17.3901 35.8191H17.3912Z" fill="url(#paint5_linear_2_28)"/>
<path d="M24.1777 17.4661C23.1152 12.0019 21.0687 5.48613 17.3514 5.48613H17.3147C14.3444 5.5216 12.0677 9.55752 10.5472 17.4823L10.5439 17.4993L10.1189 19.9775C9.94693 21.0984 9.79399 22.2619 9.66279 23.446C9.63668 23.6815 9.61135 23.9189 9.58685 24.1581C9.42425 25.7466 9.29626 27.4148 9.20503 29.1276C8.74487 28.7639 8.30762 28.3708 7.89591 27.9504C5.94486 25.9539 4.63609 23.394 4.14504 20.6138C3.65399 17.8336 4.00412 14.9661 5.14852 12.3956C6.2929 9.82503 8.17684 7.67438 10.5478 6.2319C12.9187 4.78941 15.6634 4.12406 18.4138 4.32498C21.1642 4.52589 23.789 5.58351 25.9363 7.35605C28.0836 9.12861 29.6506 11.5313 30.4274 14.2422C31.2044 16.9531 31.154 19.8425 30.283 22.5232C29.4118 25.2039 27.7619 27.5476 25.5542 29.2404C25.4587 27.4836 25.3237 25.7705 25.1517 24.138C25.1265 23.8997 25.1006 23.6624 25.0742 23.4259C24.94 22.2437 24.7855 21.08 24.6105 19.9619L24.1777 17.4661Z" fill="url(#paint6_linear_2_28)"/>
<path d="M17.437 0.24574C13.576 0.256401 9.82695 1.5763 6.77493 3.99949C3.72289 6.4227 1.53953 9.81287 0.565498 13.6411C-0.408532 17.4693 -0.118444 21.5202 1.39051 25.1618C2.89945 28.8032 5.54239 31.8307 8.90694 33.7714C8.9427 33.0256 8.98241 32.2879 9.02607 31.5591C6.99109 30.2117 5.28928 28.3985 4.05467 26.2624C2.65941 23.8402 1.91409 21.0831 1.89431 18.2705C1.87453 15.458 2.58099 12.6902 3.94206 10.2477C5.3031 7.80517 7.27033 5.77491 9.64425 4.36275C12.0182 2.95062 14.7143 2.20684 17.4593 2.20684C20.2043 2.20684 22.9005 2.95062 25.2744 4.36275C27.6482 5.77491 29.6155 7.80517 30.9766 10.2477C32.3376 12.6902 33.044 15.458 33.0242 18.2705C33.0046 21.0831 32.2592 23.8402 30.8639 26.2624C29.597 28.4546 27.8384 30.3057 25.7337 31.6627C25.7774 32.388 25.8177 33.1204 25.8547 33.8602C29.2599 31.9487 31.9471 28.9297 33.4921 25.2798C35.0371 21.6299 35.3521 17.5567 34.387 13.703C33.4221 9.84938 31.2321 6.43468 28.1628 3.99781C25.0937 1.56092 21.3199 0.2406 17.437 0.24519V0.24574Z" fill="url(#paint7_linear_2_28)"/>
<defs>
<linearGradient id="paint0_linear_2_28" x1="17.3683" y1="52.4332" x2="17.3683" y2="17.2368" gradientUnits="userSpaceOnUse">
<stop stop-color="#1153FC"/>
<stop offset="1" stop-color="#5581F1"/>
</linearGradient>
<linearGradient id="paint1_linear_2_28" x1="17.4971" y1="52.4395" x2="17.4971" y2="17.2414" gradientUnits="userSpaceOnUse">
<stop stop-color="#1153FC"/>
<stop offset="1" stop-color="#5581F1"/>
</linearGradient>
<linearGradient id="paint2_linear_2_28" x1="17.4973" y1="52.4467" x2="17.4973" y2="17.2509" gradientUnits="userSpaceOnUse">
<stop stop-color="#1153FC"/>
<stop offset="1" stop-color="#5581F1"/>
</linearGradient>
<linearGradient id="paint3_linear_2_28" x1="17.3839" y1="52.4368" x2="17.3839" y2="17.2385" gradientUnits="userSpaceOnUse">
<stop stop-color="#1153FC"/>
<stop offset="1" stop-color="#5581F1"/>
</linearGradient>
<linearGradient id="paint4_linear_2_28" x1="17.3908" y1="52.437" x2="17.3908" y2="17.2401" gradientUnits="userSpaceOnUse">
<stop stop-color="#1153FC"/>
<stop offset="1" stop-color="#5581F1"/>
</linearGradient>
<linearGradient id="paint5_linear_2_28" x1="17.4006" y1="52.4382" x2="17.4006" y2="17.2399" gradientUnits="userSpaceOnUse">
<stop stop-color="#1153FC"/>
<stop offset="1" stop-color="#5581F1"/>
</linearGradient>
<linearGradient id="paint6_linear_2_28" x1="17.4521" y1="52.4194" x2="17.4521" y2="17.2392" gradientUnits="userSpaceOnUse">
<stop stop-color="#1153FC"/>
<stop offset="1" stop-color="#5581F1"/>
</linearGradient>
<linearGradient id="paint7_linear_2_28" x1="17.4677" y1="52.4494" x2="17.4677" y2="17.2544" gradientUnits="userSpaceOnUse">
<stop stop-color="#1153FC"/>
<stop offset="1" stop-color="#5581F1"/>
</linearGradient>
</defs>
</svg>
