<svg width="44" height="64" viewBox="0 0 44 64" fill="none" xmlns="http://www.w3.org/2000/svg">
<path d="M21.8401 19.9256C24.194 19.906 26.5309 20.3189 28.7296 21.143C27.1126 13.1876 24.6185 8.32196 21.8266 8.32559H21.8235C19.0322 8.33089 16.5523 13.2015 14.9559 21.1588C17.1518 20.33 19.4867 19.9117 21.8397 19.9256H21.8401Z" fill="url(#paint0_linear_2_28)"/>
<path d="M22.0037 57.5275L18.4511 57.5321C19.3474 62.9824 20.6145 64.002 22.0152 64C23.4159 63.998 24.6742 62.9748 25.5583 57.5232L22.0037 57.5275Z" fill="url(#paint1_linear_2_28)"/>
<path d="M30.6416 42.0272C30.4961 37.9552 30.2086 33.6759 29.7372 29.2121C29.4956 26.9243 29.2195 24.6976 28.9088 22.5319C24.3622 20.8106 19.3233 20.8164 14.7808 22.5481C14.4778 24.7345 14.2078 26.9822 13.9709 29.2911C13.512 33.7887 13.2353 38.1017 13.099 42.2077C9.17454 45.0518 6.46488 50.4462 6.47399 57.5229L12.9957 57.5146C14.1889 57.5146 14.8992 57.217 14.8992 56.0241L14.8952 56.0017L21.8877 55.9931L29.1089 55.9841C29.1089 57.2471 29.7912 57.4941 30.9895 57.4925L37.5359 57.4845C37.5257 50.2726 34.6953 44.7856 30.6416 42.0272ZM21.8458 24.6127C22.3821 24.612 22.9067 24.7671 23.353 25.0586C23.7994 25.35 24.1475 25.7646 24.3534 26.2499C24.5593 26.7353 24.6138 27.2696 24.5098 27.7852C24.4059 28.3009 24.1482 28.7748 23.7695 29.1469C23.3907 29.5191 22.9079 29.7728 22.382 29.876C21.8561 29.9792 21.3108 29.9273 20.815 29.7267C20.3192 29.5262 19.8953 29.1861 19.5968 28.7494C19.2982 28.3128 19.1385 27.7992 19.1378 27.2735C19.137 26.5688 19.4219 25.8926 19.9297 25.3936C20.4375 24.8946 21.1267 24.6137 21.8458 24.6127ZM21.8573 33.2702C22.3936 33.2695 22.918 33.4246 23.3642 33.7163C23.8105 34.0076 24.1585 34.422 24.3643 34.9075C24.5702 35.3926 24.6245 35.927 24.5206 36.4426C24.4166 36.9582 24.159 37.4317 23.7803 37.8038C23.4016 38.1761 22.9187 38.4298 22.3929 38.533C21.8671 38.6361 21.3219 38.5839 20.8262 38.3835C20.3305 38.1831 19.9066 37.8431 19.6081 37.4063C19.3097 36.9697 19.15 36.4561 19.1493 35.9307C19.1485 35.2259 19.4333 34.5496 19.9412 34.0509C20.449 33.5519 21.1382 33.2711 21.8573 33.2702ZM21.8755 47.2423C21.3392 47.243 20.8149 47.0879 20.3686 46.7962C19.9224 46.5049 19.5743 46.0905 19.3685 45.605C19.1626 45.1199 19.1083 44.5855 19.2123 44.0699C19.3162 43.5543 19.5739 43.0808 19.9526 42.7084C20.3313 42.3364 20.8141 42.0827 21.3399 41.9795C21.8657 41.8764 22.4109 41.9283 22.9066 42.129C23.4023 42.3294 23.8262 42.6694 24.1247 43.1062C24.4232 43.5428 24.5828 44.0563 24.5835 44.5818C24.5839 44.9307 24.5142 45.2763 24.3784 45.5991C24.2425 45.9215 24.0431 46.2148 23.7916 46.4619C23.5401 46.7089 23.2415 46.905 22.9126 47.039C22.5838 47.1729 22.2313 47.2423 21.8752 47.2427L21.8755 47.2423Z" fill="url(#paint2_linear_2_28)"/>
<path d="M21.8488 25.7209C21.4336 25.7273 21.0376 25.8936 20.7465 26.1838C20.4553 26.4741 20.2924 26.865 20.2929 27.272C20.2935 27.679 20.4574 28.0694 20.7493 28.359C21.0412 28.6485 21.4376 28.8138 21.8529 28.8192C22.2721 28.8187 22.674 28.6549 22.97 28.3641C23.2661 28.0731 23.4321 27.6789 23.4316 27.268C23.431 26.8572 23.264 26.4633 22.9672 26.1732C22.6704 25.883 22.2681 25.7203 21.8488 25.7209Z" fill="url(#paint3_linear_2_28)"/>
<path d="M21.8603 34.3783H21.8573C21.442 34.3846 21.046 34.5509 20.7549 34.8413C20.4638 35.1317 20.3009 35.5226 20.3014 35.9293C20.3019 36.3364 20.4658 36.727 20.7577 37.0163C21.0496 37.306 21.4461 37.4714 21.8613 37.4767C22.2806 37.4763 22.6825 37.3126 22.9787 37.0216C23.2749 36.7309 23.441 36.3364 23.4405 35.9257C23.4401 35.5146 23.2731 35.1207 22.9763 34.8307C22.6795 34.5404 22.2772 34.3777 21.8579 34.378L21.8603 34.3783Z" fill="url(#paint4_linear_2_28)"/>
<path d="M21.8714 43.0361H21.8698C21.4545 43.0424 21.0585 43.2088 20.7674 43.4991C20.4763 43.7895 20.3133 44.1804 20.3139 44.5871C20.3144 44.9942 20.4783 45.3848 20.7702 45.6741C21.0621 45.9638 21.4585 46.1292 21.8738 46.1345C22.293 46.1338 22.6949 45.9705 22.991 45.6794C23.2871 45.3884 23.4532 44.9942 23.4527 44.5835C23.4522 44.1728 23.2852 43.7789 22.9884 43.4885C22.6916 43.1985 22.2893 43.0358 21.8701 43.0361H21.8714Z" fill="url(#paint5_linear_2_28)"/>
<path d="M30.4063 20.9597C29.0701 14.387 26.4964 6.54937 21.8215 6.54937H21.7753C18.0398 6.59203 15.1766 11.4467 13.2643 20.9792L13.2603 20.9997L12.7257 23.9807C12.5094 25.329 12.3171 26.7285 12.1521 28.1528C12.1193 28.4362 12.0874 28.7216 12.0566 29.0094C11.8521 30.9202 11.6911 32.9269 11.5764 34.9871C10.9977 34.5496 10.4478 34.0767 9.93004 33.5711C7.47637 31.1695 5.83043 28.0902 5.21287 24.746C4.59532 21.4018 5.03565 17.9526 6.47487 14.8606C7.91406 11.7685 10.2833 9.18157 13.2651 7.44644C16.2468 5.71131 19.6985 4.91097 23.1576 5.15265C26.6165 5.39433 29.9175 6.66651 32.6179 8.79865C35.3185 10.9308 37.2891 13.821 38.266 17.0818C39.2433 20.3427 39.1798 23.8183 38.0845 27.0428C36.9888 30.2673 34.9139 33.0866 32.1374 35.1227C32.0173 33.0095 31.8476 30.9489 31.6313 28.9852C31.5995 28.6986 31.567 28.4131 31.5337 28.1287C31.365 26.7067 31.1707 25.3068 30.9506 23.9618L30.4063 20.9597Z" fill="url(#paint6_linear_2_28)"/>
<path d="M21.9291 0.245854C17.0734 0.258678 12.3585 1.84636 8.52028 4.76114C4.68198 7.67595 1.93614 11.7539 0.711181 16.3588C-0.513777 20.9636 -0.148957 25.8364 1.74873 30.2167C3.64641 34.5969 6.97021 38.2386 11.2015 40.573C11.2465 39.6758 11.2964 38.7886 11.3513 37.9119C8.79212 36.2911 6.6519 34.1101 5.09923 31.5406C3.34452 28.627 2.40719 25.3105 2.38232 21.9274C2.35744 18.5443 3.2459 15.2149 4.9576 12.2769C6.66928 9.33889 9.1433 6.89675 12.1288 5.1981C15.1143 3.49948 18.505 2.6048 21.9571 2.6048C25.4093 2.6048 28.8 3.49948 31.7855 5.1981C34.7708 6.89675 37.2449 9.33889 38.9568 12.2769C40.6683 15.2149 41.5568 18.5443 41.5318 21.9274C41.5072 25.3105 40.5698 28.627 38.8151 31.5406C37.2217 34.1776 35.0101 36.4042 32.3632 38.0366C32.4181 38.9089 32.4688 39.7899 32.5154 40.6799C36.7978 38.3805 40.1773 34.749 42.1203 30.3587C44.0633 25.9683 44.4595 21.0687 43.2457 16.4333C42.0322 11.7978 39.278 7.69037 35.418 4.75913C31.5583 1.82785 26.8123 0.239671 21.9291 0.245193V0.245854Z" fill="url(#paint7_linear_2_28)"/>
<defs>
<linearGradient id="paint0_linear_2_28" x1="21.8428" y1="63.0208" x2="21.8428" y2="20.684" gradientUnits="userSpaceOnUse">
<stop stop-color="#1153FC"/>
<stop offset="1" stop-color="#5581F1"/>
</linearGradient>
<linearGradient id="paint1_linear_2_28" x1="22.0047" y1="63.0284" x2="22.0047" y2="20.6895" gradientUnits="userSpaceOnUse">
<stop stop-color="#1153FC"/>
<stop offset="1" stop-color="#5581F1"/>
</linearGradient>
<linearGradient id="paint2_linear_2_28" x1="22.0049" y1="63.037" x2="22.0049" y2="20.701" gradientUnits="userSpaceOnUse">
<stop stop-color="#1153FC"/>
<stop offset="1" stop-color="#5581F1"/>
</linearGradient>
<linearGradient id="paint3_linear_2_28" x1="21.8623" y1="63.0251" x2="21.8623" y2="20.686" gradientUnits="userSpaceOnUse">
<stop stop-color="#1153FC"/>
<stop offset="1" stop-color="#5581F1"/>
</linearGradient>
<linearGradient id="paint4_linear_2_28" x1="21.871" y1="63.0254" x2="21.871" y2="20.688" gradientUnits="userSpaceOnUse">
<stop stop-color="#1153FC"/>
<stop offset="1" stop-color="#5581F1"/>
</linearGradient>
<linearGradient id="paint5_linear_2_28" x1="21.8833" y1="63.0268" x2="21.8833" y2="20.6877" gradientUnits="userSpaceOnUse">
<stop stop-color="#1153FC"/>
<stop offset="1" stop-color="#5581F1"/>
</linearGradient>
<linearGradient id="paint6_linear_2_28" x1="21.9481" y1="63.0042" x2="21.9481" y2="20.6868" gradientUnits="userSpaceOnUse">
<stop stop-color="#1153FC"/>
<stop offset="1" stop-color="#5581F1"/>
</linearGradient>
<linearGradient id="paint7_linear_2_28" x1="21.9677" y1="63.0403" x2="21.9677" y2="20.7051" gradientUnits="userSpaceOnUse">
<stop stop-color="#1153FC"/>
<stop offset="1" stop-color="#5581F1"/>
</linearGradient>
</defs>
</svg>
