<svg width="28" height="25" viewBox="0 0 28 25" fill="none" xmlns="http://www.w3.org/2000/svg">
<path d="M28 2.47656C28 1.54802 27.3923 0.796753 26.6443 0.796753H15.7307C15.3711 0.796753 15.0263 0.973732 14.7721 1.28876C14.5178 1.60378 14.375 2.03105 14.375 2.47656C14.375 2.92207 14.5178 3.34934 14.7721 3.66437C15.0263 3.97939 15.3711 4.15637 15.7307 4.15637H26.6443C27.0039 4.15637 27.3487 3.97939 27.6029 3.66437C27.8572 3.34934 28 2.92207 28 2.47656ZM28 12.6145C28 11.686 27.3923 10.9347 26.6443 10.9347H2.10569C1.74614 10.9347 1.40131 11.1117 1.14707 11.4267C0.892834 11.7417 0.75 12.169 0.75 12.6145C0.75 13.06 0.892834 13.4873 1.14707 13.8023C1.40131 14.1173 1.74614 14.2943 2.10569 14.2943H26.6443C27.0039 14.2943 27.3487 14.1173 27.6029 13.8023C27.8572 13.4873 28 13.06 28 12.6145ZM26.6443 21.0726C27.0039 21.0726 27.3487 21.2496 27.6029 21.5646C27.8572 21.8797 28 22.3069 28 22.7524C28 23.198 27.8572 23.6252 27.6029 23.9402C27.3487 24.2553 27.0039 24.4323 26.6443 24.4323H10.2807C9.92114 24.4323 9.57631 24.2553 9.32207 23.9402C9.06783 23.6252 8.925 23.198 8.925 22.7524C8.925 22.3069 9.06783 21.8797 9.32207 21.5646C9.57631 21.2496 9.92114 21.0726 10.2807 21.0726H26.6443Z" fill="#2D2D2D"/>
</svg>
