<svg width="20" height="19" viewBox="0 0 20 19" fill="none" xmlns="http://www.w3.org/2000/svg">
<path d="M18.2862 10.6585C17.632 10.8322 16.958 10.9201 16.2811 10.92C14.2201 10.92 12.2846 10.119 10.8307 8.66574C9.87605 7.7059 9.1897 6.51269 8.8401 5.20504C8.4905 3.8974 8.48986 2.52099 8.83825 1.21302C8.88176 1.04949 8.88148 0.877387 8.83745 0.71399C8.79341 0.550594 8.70717 0.401646 8.58737 0.282086C8.46757 0.162526 8.31843 0.0765592 8.1549 0.032809C7.99138 -0.0109411 7.81921 -0.0109363 7.65569 0.0328231C6.01764 0.469181 4.52317 1.32846 3.32221 2.52446C-0.440738 6.28604 -0.440738 12.409 3.32221 16.1725C4.21664 17.0716 5.28057 17.7844 6.45241 18.2698C7.62426 18.7551 8.88076 19.0033 10.1492 19C11.4173 19.0035 12.6735 18.7555 13.8451 18.2704C15.0166 17.7852 16.0802 17.0725 16.9743 16.1735C18.1716 14.9727 19.0316 13.478 19.4678 11.8396C19.5111 11.6762 19.5107 11.5042 19.4667 11.3409C19.4227 11.1776 19.3366 11.0288 19.217 10.9092C19.0974 10.7896 18.9484 10.7035 18.7851 10.6595C18.6217 10.6155 18.4497 10.6152 18.2862 10.6585V10.6585ZM15.6102 14.809C14.8949 15.528 14.0439 16.098 13.1067 16.4861C12.1695 16.8742 11.1646 17.0727 10.1502 17.07C9.13538 17.0725 8.13016 16.8739 7.19263 16.4856C6.25511 16.0974 5.40389 15.5272 4.68819 14.808C1.67821 11.7981 1.67821 6.89979 4.68819 3.88994C5.26982 3.30917 5.94131 2.82594 6.67682 2.45884C6.56916 3.84754 6.76269 5.2431 7.24418 6.55015C7.72568 7.85721 8.48378 9.04494 9.46669 10.0322C10.4521 11.0178 11.6399 11.7777 12.948 12.2594C14.2561 12.7411 15.6532 12.9331 17.0428 12.822C16.6736 13.556 16.19 14.2267 15.6102 14.809V14.809Z" fill="#333333"/>
</svg>
